<mxfile host="Electron" modified="2023-05-10T18:19:44.134Z" agent="Mozilla/5.0 (X11; Linux x86_64) AppleWebKit/537.36 (KHTML, like Gecko) draw.io/21.2.8 Chrome/112.0.5615.165 Electron/24.2.0 Safari/537.36" etag="A1TK9bRuSOZq5wIYVlKq" version="21.2.8" type="device">
  <diagram name="Page-1" id="MzqSHk1QGt0DU5yl56VU">
    <mxGraphModel dx="1360" dy="738" grid="1" gridSize="10" guides="1" tooltips="1" connect="1" arrows="1" fold="1" page="1" pageScale="1" pageWidth="827" pageHeight="1169" math="0" shadow="0">
      <root>
        <mxCell id="0" />
        <mxCell id="1" parent="0" />
        <mxCell id="4_OO1GRJjltScIyBnV0f-2" value="&lt;font style=&quot;font-size: 15px;&quot;&gt;expression_tree&amp;lt;my_type&amp;gt;&lt;/font&gt;" style="swimlane;whiteSpace=wrap;html=1;fillColor=#ffe6cc;strokeColor=#d79b00;shadow=1;" vertex="1" parent="1">
          <mxGeometry x="80" y="95" width="550" height="435" as="geometry" />
        </mxCell>
        <mxCell id="4_OO1GRJjltScIyBnV0f-4" value="&lt;font size=&quot;1&quot; style=&quot;&quot;&gt;&lt;b style=&quot;font-size: 15px;&quot;&gt;OR&lt;/b&gt;&lt;/font&gt;" style="ellipse;whiteSpace=wrap;html=1;aspect=fixed;fillColor=#dae8fc;strokeColor=#6c8ebf;shadow=1;" vertex="1" parent="4_OO1GRJjltScIyBnV0f-2">
          <mxGeometry x="174" y="50" width="80" height="80" as="geometry" />
        </mxCell>
        <mxCell id="4_OO1GRJjltScIyBnV0f-6" style="rounded=0;orthogonalLoop=1;jettySize=auto;html=1;exitX=0.5;exitY=0;exitDx=0;exitDy=0;entryX=0.5;entryY=1;entryDx=0;entryDy=0;startArrow=classic;startFill=1;endArrow=none;endFill=0;edgeStyle=orthogonalEdgeStyle;curved=1;shadow=1;" edge="1" parent="4_OO1GRJjltScIyBnV0f-2" source="4_OO1GRJjltScIyBnV0f-5" target="4_OO1GRJjltScIyBnV0f-4">
          <mxGeometry relative="1" as="geometry" />
        </mxCell>
        <mxCell id="4_OO1GRJjltScIyBnV0f-5" value="&lt;font style=&quot;font-size: 15px;&quot;&gt;my_bool == true&lt;/font&gt;" style="rounded=1;whiteSpace=wrap;html=1;fillColor=#fff2cc;strokeColor=#d6b656;shadow=1;" vertex="1" parent="4_OO1GRJjltScIyBnV0f-2">
          <mxGeometry x="40" y="200" width="134" height="60" as="geometry" />
        </mxCell>
        <mxCell id="4_OO1GRJjltScIyBnV0f-8" style="edgeStyle=orthogonalEdgeStyle;rounded=0;orthogonalLoop=1;jettySize=auto;html=1;exitX=0.5;exitY=0;exitDx=0;exitDy=0;entryX=0.5;entryY=1;entryDx=0;entryDy=0;curved=1;startArrow=classic;startFill=1;endArrow=none;endFill=0;shadow=1;" edge="1" parent="4_OO1GRJjltScIyBnV0f-2" source="4_OO1GRJjltScIyBnV0f-7" target="4_OO1GRJjltScIyBnV0f-4">
          <mxGeometry relative="1" as="geometry" />
        </mxCell>
        <mxCell id="4_OO1GRJjltScIyBnV0f-7" value="&lt;font style=&quot;font-size: 15px;&quot;&gt;&lt;b&gt;AND&lt;/b&gt;&lt;/font&gt;" style="ellipse;whiteSpace=wrap;html=1;aspect=fixed;fillColor=#dae8fc;strokeColor=#6c8ebf;shadow=1;" vertex="1" parent="4_OO1GRJjltScIyBnV0f-2">
          <mxGeometry x="290" y="200" width="80" height="80" as="geometry" />
        </mxCell>
        <mxCell id="4_OO1GRJjltScIyBnV0f-10" style="rounded=0;orthogonalLoop=1;jettySize=auto;html=1;exitX=0.5;exitY=0;exitDx=0;exitDy=0;entryX=0.5;entryY=1;entryDx=0;entryDy=0;startArrow=classic;startFill=1;endArrow=none;endFill=0;edgeStyle=orthogonalEdgeStyle;curved=1;shadow=1;" edge="1" parent="4_OO1GRJjltScIyBnV0f-2" source="4_OO1GRJjltScIyBnV0f-11" target="4_OO1GRJjltScIyBnV0f-7">
          <mxGeometry relative="1" as="geometry">
            <mxPoint x="328" y="280" as="targetPoint" />
          </mxGeometry>
        </mxCell>
        <mxCell id="4_OO1GRJjltScIyBnV0f-11" value="&lt;span style=&quot;font-size: 15px;&quot;&gt;get_my_int() &amp;gt; 0&lt;/span&gt;" style="rounded=1;whiteSpace=wrap;html=1;fillColor=#fff2cc;strokeColor=#d6b656;shadow=1;" vertex="1" parent="4_OO1GRJjltScIyBnV0f-2">
          <mxGeometry x="150" y="350" width="140" height="60" as="geometry" />
        </mxCell>
        <mxCell id="4_OO1GRJjltScIyBnV0f-12" style="rounded=0;orthogonalLoop=1;jettySize=auto;html=1;exitX=0.5;exitY=0;exitDx=0;exitDy=0;entryX=0.5;entryY=1;entryDx=0;entryDy=0;startArrow=classic;startFill=1;endArrow=none;endFill=0;edgeStyle=orthogonalEdgeStyle;curved=1;shadow=1;" edge="1" parent="4_OO1GRJjltScIyBnV0f-2" source="4_OO1GRJjltScIyBnV0f-13" target="4_OO1GRJjltScIyBnV0f-7">
          <mxGeometry relative="1" as="geometry">
            <mxPoint x="580" y="280" as="targetPoint" />
          </mxGeometry>
        </mxCell>
        <mxCell id="4_OO1GRJjltScIyBnV0f-13" value="&lt;span style=&quot;font-size: 15px;&quot;&gt;my_int &amp;lt; 10&lt;/span&gt;" style="rounded=1;whiteSpace=wrap;html=1;fillColor=#fff2cc;strokeColor=#d6b656;shadow=1;" vertex="1" parent="4_OO1GRJjltScIyBnV0f-2">
          <mxGeometry x="370" y="350" width="140" height="60" as="geometry" />
        </mxCell>
      </root>
    </mxGraphModel>
  </diagram>
</mxfile>
